<?xml version="1.0" standalone="no"?>
<!DOCTYPE svg PUBLIC "-//W3C//DTD SVG 1.1//EN" "http://www.w3.org/Graphics/SVG/1.1/DTD/svg11.dtd" >
<svg xmlns="http://www.w3.org/2000/svg">
<metadata>Generated by IcoMoon</metadata>
<defs>
<font id="custom" horiz-adv-x="1024">
<font-face units-per-em="1024" ascent="960" descent="-64" />
<missing-glyph horiz-adv-x="1024" />
<glyph unicode="&#x20;" horiz-adv-x="512" d="" />
<glyph unicode="&#xe900;" glyph-name="heading" d="M725.333 490.667v298.667h85.333v-725.333h-85.333v341.333h-426.667v-341.333h-85.333v725.333h85.333v-298.667z" />
<glyph unicode="&#xe901;" glyph-name="delete-col" d="M539.343 24.288c13.319-28.436 29.674-52.899 49.135-74.509l-0.239 0.27c-22.625-8.92-48.831-14.090-76.244-14.090-117.819 0-213.331 95.512-213.331 213.331 0 0.019 0 0.037 0 0.056v-0.003 597.327c0 117.819 95.512 213.331 213.331 213.331s213.331-95.512 213.331-213.331v0-311.037c-32.519-9.848-60.862-23.884-86.271-41.801l0.939 0.628v352.209c0 70.692-57.307 127.999-127.999 127.999s-127.999-57.307-127.999-127.999v0-597.327c0-0.004 0-0.008 0-0.012 0-70.692 57.307-127.999 127.999-127.999 9.691 0 19.13 1.077 28.204 3.118l-0.855-0.162zM810.658 362.673c117.819 0 213.331-95.512 213.331-213.331s-95.512-213.331-213.331-213.331v0c-117.819 0-213.331 95.512-213.331 213.331s95.512 213.331 213.331 213.331v0zM703.992 109.322h213.331c22.091 0 40 17.908 40 40s-17.908 40-40 40v0h-213.331c-22.091 0-40-17.908-40-40s17.908-40 40-40v0z" />
<glyph unicode="&#xe902;" glyph-name="delete-row" d="M565.547 320c-17.289-24.471-31.325-52.813-40.619-83.226l-0.554-2.107h-311.040c-117.821 0-213.333 95.513-213.333 213.333s95.513 213.333 213.333 213.333v0h597.333c0.016 0 0.034 0 0.053 0 117.821 0 213.333-95.513 213.333-213.333 0-27.414-5.171-53.62-14.59-77.696l0.5 1.451c-21.341 19.222-45.804 35.577-72.416 48.123l-1.824 0.773c1.879 8.22 2.956 17.659 2.956 27.349 0 70.692-57.308 128-128 128-0.004 0-0.008 0-0.013 0h-597.333c-70.692 0-128-57.308-128-128s57.308-128 128-128v0h352.213zM810.667 362.667c117.821 0 213.333-95.513 213.333-213.333s-95.513-213.333-213.333-213.333v0c-117.821 0-213.333 95.513-213.333 213.333s95.513 213.333 213.333 213.333v0zM704 109.312h213.333c22.091 0 40 17.909 40 40s-17.909 40-40 40v0h-213.333c-22.091 0-40-17.909-40-40s17.909-40 40-40v0z" />
<glyph unicode="&#xe903;" glyph-name="insert-col-left" d="M248 848h-80c-4.4 0-8-3.6-8-8v-784c0-4.4 3.6-8 8-8h80c4.4 0 8 3.6 8 8v784c0 4.4-3.6 8-8 8zM832 848h-464c-17.7 0-32-14.9-32-33.3v-733.3c0-18.4 14.3-33.3 32-33.3h464c17.7 0 32 14.9 32 33.3v733.3c0 18.4-14.3 33.3-32 33.3zM568 120h-160v176h160v-176zM568 360h-160v176h160v-176zM568 600h-160v176h160v-176zM792 120h-160v176h160v-176zM792 360h-160v176h160v-176zM792 600h-160v176h160v-176z" />
<glyph unicode="&#xe904;" glyph-name="insert-col-right" d="M856 848h-80c-4.4 0-8-3.6-8-8v-784c0-4.4 3.6-8 8-8h80c4.4 0 8 3.6 8 8v784c0 4.4-3.6 8-8 8zM656 848h-464c-17.7 0-32-14.9-32-33.3v-733.3c0-18.4 14.3-33.3 32-33.3h464c17.7 0 32 14.9 32 33.3v733.3c0 18.4-14.3 33.3-32 33.3zM392 120h-160v176h160v-176zM392 360h-160v176h160v-176zM392 600h-160v176h160v-176zM616 120h-160v176h160v-176zM616 360h-160v176h160v-176zM616 600h-160v176h160v-176z" />
<glyph unicode="&#xe905;" glyph-name="insert-row-above" d="M878.7 624h-733.4c-18.4 0-33.3-14.3-33.3-32v-464c0-17.7 14.9-32 33.3-32h733.3c18.4 0 33.3 14.3 33.3 32v464c0.1 17.7-14.8 32-33.2 32zM360 168h-176v160h176v-160zM360 392h-176v160h176v-160zM600 168h-176v160h176v-160zM600 392h-176v160h176v-160zM840 168h-176v160h176v-160zM840 392h-176v160h176v-160zM904 800h-784c-4.4 0-8-3.6-8-8v-80c0-4.4 3.6-8 8-8h784c4.4 0 8 3.6 8 8v80c0 4.4-3.6 8-8 8z" />
<glyph unicode="&#xe906;" glyph-name="insert-row-below" d="M904 192h-784c-4.4 0-8-3.6-8-8v-80c0-4.4 3.6-8 8-8h784c4.4 0 8 3.6 8 8v80c0 4.4-3.6 8-8 8zM878.7 800h-733.4c-18.4 0-33.3-14.3-33.3-32v-464c0-17.7 14.9-32 33.3-32h733.3c18.4 0 33.3 14.3 33.3 32v464c0.1 17.7-14.8 32-33.2 32zM360 344h-176v160h176v-160zM360 568h-176v160h176v-160zM600 344h-176v160h176v-160zM600 568h-176v160h176v-160zM840 344h-176v160h176v-160zM840 568h-176v160h176v-160z" />
<glyph unicode="&#xe907;" glyph-name="merge-cells" d="M898.72 813.632h-773.44c-0.009 0-0.021 0-0.032 0-34.94 0-63.264-28.324-63.264-63.264 0-0.011 0-0.023 0-0.034v0.002-604.704c0-34.976 28.288-63.296 63.296-63.296h773.44c0.009 0 0.021 0 0.032 0 34.94 0 63.264 28.324 63.264 63.264 0 0.011 0 0.023 0 0.034v-0.002 604.672c0 0.009 0 0.021 0 0.032 0 34.94-28.324 63.264-63.264 63.264-0.011 0-0.023 0-0.034 0h0.002zM350.272 750.336h242.592v-154.688h-242.592v154.688zM287.008 145.664h-161.728v161.728h161.728v-161.728zM287.008 370.656h-161.728v161.728h161.728v-161.728zM287.008 595.648h-161.728v154.688h161.728v-154.688zM898.72 145.664h-548.448v386.72h548.448v-386.72zM898.72 595.648h-242.592v154.688h242.592v-154.688z" />
<glyph unicode="&#xe908;" glyph-name="chevron-right" d="M318.706 41.374c-12.497 12.497-12.497 32.755 0 45.252l361.371 361.374-361.371 361.373c-12.497 12.497-12.497 32.758 0 45.255s32.758 12.497 45.255 0l383.999-384.001c12.497-12.497 12.497-32.755 0-45.252l-383.999-384c-12.497-12.497-32.758-12.497-45.255 0z" />
<glyph unicode="&#xe909;" glyph-name="table-delete" d="M405.333 64h107.605c-27.345 42.314-43.599 94.019-43.599 149.521 0 22.638 2.704 44.644 7.807 65.713l-0.389-1.901h-71.424v-213.333zM896 554.667v-107.605c-42.314 27.345-94.019 43.599-149.521 43.599-22.638 0-44.644-2.704-65.713-7.807l1.901 0.389v71.424h213.333zM618.667 554.667v-95.232c-50.76-26.865-91.236-67.341-117.371-116.592l-0.731-1.51h-95.232v213.333h213.333zM896 618.667v74.667c0 76.583-62.083 138.667-138.667 138.667v0h-74.667v-213.333h213.333zM618.667 832h-213.333v-213.333h213.333v213.333zM341.333 832h-74.667c-76.583 0-138.667-62.083-138.667-138.667v0-74.667h213.333v213.333zM128 554.667v-213.333h213.333v213.333h-213.333zM128 277.333v-74.667c0-76.583 62.083-138.667 138.667-138.667h74.667v213.333h-213.333zM981.333 213.333c0-0.005 0-0.010 0-0.015 0-129.603-105.064-234.667-234.667-234.667s-234.667 105.064-234.667 234.667c0 0.005 0 0.011 0 0.016v-0.001c0.009 129.596 105.069 234.651 234.667 234.651s234.658-105.055 234.667-234.65v-0.001zM676.437 313.771c-3.865 3.865-9.206 6.256-15.104 6.256-11.797 0-21.36-9.563-21.36-21.36 0-5.898 2.391-11.239 6.256-15.104l70.272-70.229-70.272-70.229c-3.865-3.865-6.256-9.206-6.256-15.104 0-11.797 9.563-21.36 21.36-21.36 5.898 0 11.239 2.391 15.104 6.256l70.229 70.272 70.229-70.272c3.865-3.865 9.206-6.256 15.104-6.256 11.797 0 21.36 9.563 21.36 21.36 0 5.898-2.391 11.239-6.256 15.104l-70.272 70.229 70.272 70.229c3.865 3.865 6.256 9.206 6.256 15.104 0 11.797-9.563 21.36-21.36 21.36-5.898 0-11.239-2.391-15.104-6.256l-70.229-70.272-70.229 70.272z" />
<glyph unicode="&#xe90e;" glyph-name="forward" d="M1001.103 593.547c9.069-8.356 9.213-21.853 0.259-30.204l-393.2-366.745c-8.926-8.325-16.161-5.098-16.161 7.268v744.304c0 12.339 7.386 15.536 16.42 7.212l392.683-361.834zM429.041-63.559c-147.076-9.773-458.883 146.675-407.356 489.085s443.362 312.177 570.315 313.582c0-7.327 0-184.349 0-313.277-678.262 41.535-310.035-489.39-162.959-489.39z" />
<glyph unicode="&#xe924;" glyph-name="reply" d="M22.889 593.547c-9.069-8.356-9.213-21.853-0.259-30.204l393.2-366.745c8.926-8.325 16.161-5.098 16.161 7.268v744.304c0 12.339-7.386 15.536-16.42 7.212l-392.683-361.834zM594.951-63.559c147.076-9.773 458.883 146.675 407.356 489.085s-443.362 312.177-570.315 313.582c0-7.327 0-184.349 0-313.277 678.262 41.535 310.035-489.39 162.959-489.39z" />
<glyph unicode="&#xe953;" glyph-name="align-center" d="M0 928.033c0 17.655 14.476 31.967 32.053 31.967h959.894c17.702 0 32.053-14.372 32.053-31.967v-32.067c0-17.655-14.476-31.967-32.053-31.967h-959.894c-17.702 0-32.053 14.372-32.053 31.967v32.067zM272 704.033c0 17.655 14.365 31.967 31.866 31.967h416.268c17.599 0 31.866-14.372 31.866-31.967v-32.067c0-17.655-14.365-31.967-31.866-31.967h-416.268c-17.599 0-31.866 14.372-31.866 31.967v32.067zM112 464.033c0 17.655 14.225 31.967 31.855 31.967h736.291c17.593 0 31.855-14.372 31.855-31.967v-32.067c0-17.655-14.225-31.967-31.855-31.967h-736.291c-17.593 0-31.855 14.372-31.855 31.967v32.067zM272 224.033c0 17.655 14.365 31.967 31.866 31.967h416.268c17.599 0 31.866-14.372 31.866-31.967v-32.067c0-17.655-14.365-31.967-31.866-31.967h-416.268c-17.599 0-31.866 14.372-31.866 31.967v32.067zM0 0.033c0 17.655 14.476 31.967 32.053 31.967h959.894c17.702 0 32.053-14.372 32.053-31.967v-32.067c0-17.655-14.476-31.967-32.053-31.967h-959.894c-17.702 0-32.053 14.372-32.053 31.967v32.067z" />
<glyph unicode="&#xe954;" glyph-name="align-justify" d="M0 928.033c0 17.655 14.476 31.967 32.053 31.967h959.894c17.702 0 32.053-14.372 32.053-31.967v-32.067c0-17.655-14.476-31.967-32.053-31.967h-959.894c-17.702 0-32.053 14.372-32.053 31.967v32.067zM0 704.033c0 17.655 14.476 31.967 32.053 31.967h959.894c17.702 0 32.053-14.372 32.053-31.967v-32.067c0-17.655-14.476-31.967-32.053-31.967h-959.894c-17.702 0-32.053 14.372-32.053 31.967v32.067zM0 464.033c0 17.655 14.476 31.967 32.053 31.967h959.894c17.702 0 32.053-14.372 32.053-31.967v-32.067c0-17.655-14.476-31.967-32.053-31.967h-959.894c-17.702 0-32.053 14.372-32.053 31.967v32.067zM0 224.033c0 17.655 14.476 31.967 32.053 31.967h959.894c17.702 0 32.053-14.372 32.053-31.967v-32.067c0-17.655-14.476-31.967-32.053-31.967h-959.894c-17.702 0-32.053 14.372-32.053 31.967v32.067zM0 0.033c0 17.655 14.476 31.967 32.053 31.967h959.894c17.702 0 32.053-14.372 32.053-31.967v-32.067c0-17.655-14.476-31.967-32.053-31.967h-959.894c-17.702 0-32.053 14.372-32.053 31.967v32.067z" />
<glyph unicode="&#xe955;" glyph-name="align-left" d="M0 928.033c0 17.655 14.476 31.967 32.053 31.967h959.894c17.702 0 32.053-14.372 32.053-31.967v-32.067c0-17.655-14.476-31.967-32.053-31.967h-959.894c-17.702 0-32.053 14.372-32.053 31.967v32.067zM0 704.033c0 17.655 14.365 31.967 31.866 31.967h416.268c17.599 0 31.866-14.372 31.866-31.967v-32.067c0-17.655-14.365-31.967-31.866-31.967h-416.268c-17.599 0-31.866 14.372-31.866 31.967v32.067zM0 464.033c0 17.655 14.225 31.967 31.855 31.967h736.291c17.593 0 31.855-14.372 31.855-31.967v-32.067c0-17.655-14.225-31.967-31.855-31.967h-736.291c-17.593 0-31.855 14.372-31.855 31.967v32.067zM0 224.033c0 17.655 14.365 31.967 31.866 31.967h416.268c17.599 0 31.866-14.372 31.866-31.967v-32.067c0-17.655-14.365-31.967-31.866-31.967h-416.268c-17.599 0-31.866 14.372-31.866 31.967v32.067zM0 0.033c0 17.655 14.476 31.967 32.053 31.967h959.894c17.702 0 32.053-14.372 32.053-31.967v-32.067c0-17.655-14.476-31.967-32.053-31.967h-959.894c-17.702 0-32.053 14.372-32.053 31.967v32.067z" />
<glyph unicode="&#xe956;" glyph-name="align-right" d="M0 928.033c0 17.655 14.476 31.967 32.053 31.967h959.894c17.702 0 32.053-14.372 32.053-31.967v-32.067c0-17.655-14.476-31.967-32.053-31.967h-959.894c-17.702 0-32.053 14.372-32.053 31.967v32.067zM544 704.033c0 17.655 14.365 31.967 31.866 31.967h416.268c17.599 0 31.866-14.372 31.866-31.967v-32.067c0-17.655-14.365-31.967-31.866-31.967h-416.268c-17.599 0-31.866 14.372-31.866 31.967v32.067zM224 464.033c0 17.655 14.225 31.967 31.855 31.967h736.291c17.593 0 31.855-14.372 31.855-31.967v-32.067c0-17.655-14.225-31.967-31.855-31.967h-736.291c-17.593 0-31.855 14.372-31.855 31.967v32.067zM544 224.033c0 17.655 14.365 31.967 31.866 31.967h416.268c17.599 0 31.866-14.372 31.866-31.967v-32.067c0-17.655-14.365-31.967-31.866-31.967h-416.268c-17.599 0-31.866 14.372-31.866 31.967v32.067zM0 0.033c0 17.655 14.476 31.967 32.053 31.967h959.894c17.702 0 32.053-14.372 32.053-31.967v-32.067c0-17.655-14.476-31.967-32.053-31.967h-959.894c-17.702 0-32.053 14.372-32.053 31.967v32.067z" />
<glyph unicode="&#xe957;" glyph-name="code" d="M895.451 355.812c0.134-10.441-3.778-20.923-11.712-28.857l-147.014-147.014c-15.639-15.639-40.871-15.762-56.6-0.032-15.621 15.621-15.545 41.023 0.032 56.6l119.303 119.303-119.303 119.303c-15.577 15.577-15.653 40.98-0.032 56.6 15.73 15.73 40.962 15.607 56.6-0.032l147.014-147.014c7.934-7.934 11.846-18.416 11.712-28.857zM128.604 355.812c-0.134 10.441 3.778 20.923 11.712 28.857l147.014 147.014c15.639 15.639 40.871 15.762 56.6 0.032 15.621-15.621 15.545-41.023-0.032-56.6l-119.303-119.303 119.303-119.303c15.577-15.577 15.653-40.98 0.032-56.6-15.73-15.73-40.962-15.607-56.6 0.032l-147.014 147.014c-7.934 7.934-11.846 18.416-11.712 28.857zM956.014 959.333c51.048 0 67.986-19.487 67.986-77.014v-868.638c0-58.327-17.055-77.681-67.402-77.681h-890.948c-46.96 0-65.65 20.822-65.65 74.344v877.314c0 51.654 18.807 71.675 64.482 72.342 150.107-0.667 299.747-0.667 449.854-0.667h441.677zM960 0v720h-896v-720h896zM525.055 555.442c5.732 21.391 27.528 34.137 49.015 28.38 21.339-5.718 33.994-27.682 28.259-49.085l-103.476-386.179c-5.732-21.391-27.528-34.137-49.015-28.38-21.339 5.718-33.994 27.682-28.259 49.085l103.476 386.179z" />
<glyph unicode="&#xe958;" glyph-name="cube" d="M512 960l464-240v-528l-464-256-464 256v528l464 240zM544 8l376 200v432l-376-200.522v-431.478zM512 904l-384-200 384-200 384 199.947-384 200.053z" />
<glyph unicode="&#xe95b;" glyph-name="image" d="M0 831.921v-767.843c0-35.282 28.679-64.079 64.056-64.079h895.888c35.33 0 64.056 28.689 64.056 64.079v767.843c0 35.282-28.679 64.079-64.056 64.079h-895.888c-35.33 0-64.056-28.689-64.056-64.079zM864.002 96l-241.386 263.523-131.62-147.504-197.503 256.292-197.493-256.292v533.825c0 54.156 46.301 54.156 63.987 54.156h704.015c17.698 0 63.998 0 63.998-54.156v-595.689c0 0 0-54.156-63.998-54.156zM624 623.99c0-52.986 42.977-95.99 96-95.99 52.995 0 96 43.005 96 95.99 0 53.025-43.005 96.010-96 96.010-53.023 0-96-42.984-96-96.010z" />
<glyph unicode="&#xe95e;" glyph-name="link" d="M1024 207.209c0-50.034-17.636-92.677-53.476-127.36l-92.16-91.54c-34.702-34.683-77.369-52.309-127.431-52.309-50.631 0-93.298 17.626-128 53.446l-129.138 129.635c-34.702 34.683-52.338 77.326-52.338 127.36 0 51.172 18.204 94.952 55.182 131.34l-55.182 55.152c-35.84-36.957-79.644-55.152-130.276-55.152-50.062 0-92.729 17.626-128 52.877l-130.276 130.772c-35.271 34.683-52.907 77.326-52.907 127.929s17.636 92.677 53.476 127.36l92.16 91.54c34.702 34.114 77.369 51.74 127.431 51.74 50.631 0 93.298-17.626 128-53.446l129.138-129.635c34.702-34.683 52.338-77.326 52.338-127.36 0-51.172-18.204-94.952-55.182-131.34l55.182-55.152c35.84 36.957 79.644 55.152 130.276 55.152 50.062 0 92.729-17.626 128-52.877l130.276-130.203c35.271-34.683 52.907-77.326 52.907-127.929v0zM462.507 649.559c0 16.489-5.689 30.703-17.636 42.643l-129.138 129.635c-11.947 11.94-26.169 17.626-42.667 17.626s-30.72-5.686-42.667-17.057l-92.16-91.54c-11.947-11.94-17.636-25.586-17.636-42.074s5.689-30.703 17.636-42.643l130.276-130.203c11.378-11.371 25.6-17.057 42.667-17.057 17.636 0 32.427 6.254 44.942 19.331-1.138 1.137-5.12 5.117-11.947 11.371s-11.378 10.803-13.653 13.646c-2.276 2.274-5.689 6.254-9.671 11.94s-6.827 10.803-7.964 15.92c-1.707 5.117-2.276 10.803-2.276 17.057 0 16.489 5.689 30.703 17.636 42.643s26.169 17.626 42.667 17.626c6.258 0 11.947-0.569 17.067-2.274s10.809-3.98 15.929-7.96c5.689-3.98 9.671-7.391 11.947-9.666l13.653-13.646c6.258-6.823 10.24-10.803 11.378-11.94 14.791 13.646 21.618 28.997 21.618 46.623v0zM903.396 207.209c0 16.489-5.689 30.703-17.636 42.643l-130.276 130.203c-11.947 11.94-26.169 17.626-42.667 17.626-17.636 0-32.427-6.823-44.942-19.9 1.138-1.137 5.12-5.117 11.947-11.371s11.378-10.803 13.653-13.646c2.276-2.274 5.689-6.254 9.671-11.94s6.827-10.803 7.964-15.92c1.707-5.117 2.276-10.803 2.276-17.057 0-16.489-5.689-30.703-17.636-42.643s-26.169-17.626-42.667-17.626c-6.258 0-11.947 0.569-17.067 2.274s-10.809 3.98-15.929 7.96c-5.689 3.98-9.671 6.823-11.947 9.666l-13.653 13.646c-6.258 6.823-10.24 10.803-11.378 11.94-13.653-13.077-20.48-28.429-20.48-46.054 0-16.489 5.689-30.703 17.636-42.643l129.138-129.635c11.378-11.371 25.6-17.057 42.667-17.057 16.498 0 30.72 5.686 42.667 16.489l92.16 91.54c10.809 11.371 16.498 25.586 16.498 41.506v0z" />
<glyph unicode="&#xe95f;" glyph-name="list-ol" d="M144 672h-80.768v180c0 10.326-2.44 17.651-7.321 21.977s-14.248 6.488-28.103 6.488h-11.808v33.488c17.948 3.349 33.535 9.070 46.76 17.163 11.336 6.977 22.514 16.605 33.535 28.884h47.705v-288zM192 534.459c0-15.064-4.146-30.813-12.439-47.247-6.851-13.421-18.749-31.087-35.696-52.999s-34.073-43.823-51.38-65.735h91.403v-48.479h-183.887v40.262c25.961 35.88 43.628 60.531 53.003 73.952 11.178 15.612 23.977 34.374 38.4 56.285 9.375 15.064 15.324 25.815 17.848 32.251s3.786 13.078 3.786 19.926c0 14.516-6.31 21.775-18.93 21.775-7.211 0-12.079-2.739-14.603-8.217s-3.786-13.147-3.786-23.007v-26.294h-75.718v9.449c0 5.478 0.090 10.819 0.27 16.023s0.811 10.545 1.893 16.023c3.606 19.447 13.161 34.237 28.665 44.371s35.876 15.201 61.115 15.201c12.98 0 24.518-1.027 34.614-3.081s19.47-5.409 28.124-10.066c24.879-14.243 37.318-34.374 37.318-60.394zM192 24.336c0-16.941-1.407-30.521-4.22-40.739s-8.44-19.092-16.879-26.622c-15.473-13.983-38.681-20.975-69.626-20.975-32.704 0-57.494 5.042-74.374 15.126s-25.319 25.075-25.319 44.975l-1.582 33.479v9.681h81.231v-43.563c0-11.294 4.571-16.941 13.714-16.941 7.033 0 11.341 2.689 12.923 8.067s2.374 15.462 2.374 30.252v19.361c0 16.134-3.692 26.353-11.077 30.655-5.626 3.227-18.11 4.84-37.451 4.84v40.336h4.747c19.692 0 31.912 1.479 36.659 4.437s7.121 11.429 7.121 25.412v15.731c0 8.336-0.527 13.714-1.582 16.134-2.11 4.84-6.33 7.261-12.659 7.261-9.846 0-14.769-5.513-14.769-16.538v-23.798h-81.231v15.731c0 25.815 6.945 43.496 20.835 53.042s38.066 14.319 72.527 14.319c32.352 0 56.352-5.849 72-17.546s23.473-30.319 23.473-55.866c0-15.866-3.341-27.832-10.022-35.899-4.571-5.647-12.483-11.025-23.736-16.134 16.176-5.109 26.374-12.571 30.593-22.387s6.33-27.092 6.33-51.832zM288 96.033c0 17.655 14.372 31.967 32.098 31.967h671.803c17.727 0 32.098-14.372 32.098-31.967v-32.067c0-17.655-14.372-31.967-32.098-31.967h-671.803c-17.727 0-32.098 14.372-32.098 31.967v32.067zM288 464.033c0 17.655 14.372 31.967 32.098 31.967h671.803c17.727 0 32.098-14.372 32.098-31.967v-32.067c0-17.655-14.372-31.967-32.098-31.967h-671.803c-17.727 0-32.098 14.372-32.098 31.967v32.067zM288 832.033c0 17.655 14.372 31.967 32.098 31.967h671.803c17.727 0 32.098-14.372 32.098-31.967v-32.067c0-17.655-14.372-31.967-32.098-31.967h-671.803c-17.727 0-32.098 14.372-32.098 31.967v32.067z" />
<glyph unicode="&#xe960;" glyph-name="list-ul" d="M96 720c-53.019 0-96 42.981-96 96s42.981 96 96 96c53.019 0 96-42.981 96-96s-42.981-96-96-96zM96 352c-53.019 0-96 42.981-96 96s42.981 96 96 96c53.019 0 96-42.981 96-96s-42.981-96-96-96zM96-16c-53.019 0-96 42.981-96 96s42.981 96 96 96c53.019 0 96-42.981 96-96s-42.981-96-96-96zM288 96.033c0 17.655 14.372 31.967 32.098 31.967h671.803c17.727 0 32.098-14.372 32.098-31.967v-32.067c0-17.655-14.372-31.967-32.098-31.967h-671.803c-17.727 0-32.098 14.372-32.098 31.967v32.067zM288 464.033c0 17.655 14.372 31.967 32.098 31.967h671.803c17.727 0 32.098-14.372 32.098-31.967v-32.067c0-17.655-14.372-31.967-32.098-31.967h-671.803c-17.727 0-32.098 14.372-32.098 31.967v32.067zM288 832.033c0 17.655 14.372 31.967 32.098 31.967h671.803c17.727 0 32.098-14.372 32.098-31.967v-32.067c0-17.655-14.372-31.967-32.098-31.967h-671.803c-17.727 0-32.098 14.372-32.098 31.967v32.067z" />
<glyph unicode="&#xe962;" glyph-name="quote" d="M0.239 427.042c-1.875 61.443 7.278 119.141 27.455 173.092s48.46 101.419 85.067 142.426c36.489 40.884 79.295 74.843 130.47 103.513s74.906 42.547 140.769 49.927v-168.218c-79.353-24.192-129.342-59.964-156.212-107.442-26.989-47.478-40.361-121.625-40.361-190.45h212.573v-429.882h-399.76l-0.001 427.035zM624.239 427.042c-1.875 61.443 7.278 119.141 27.455 173.092s48.46 101.419 85.067 142.426c36.489 40.884 79.295 74.843 130.47 103.513s74.906 42.547 140.769 49.927v-168.218c-79.353-24.192-129.342-59.964-156.212-107.442-26.989-47.478-40.361-121.625-40.361-190.45h212.573v-429.882h-399.76l-0.001 427.035z" />
<glyph unicode="&#xe964;" glyph-name="table" d="M956.014 959.333c51.048 0 67.986-19.487 67.986-77.014v-868.638c0-58.327-17.055-77.681-67.402-77.681h-890.948c-46.96 0-65.65 20.822-65.65 74.344v877.314c0 51.654 18.807 71.675 64.482 72.342 150.107-0.667 299.747-0.667 449.854-0.667h441.677zM320 192h-256v-192h256v192zM640 0v192h-256v-192h256zM704 0h256v192h-256v-192zM64 464v-192h256v192h-256zM960 270.645v193.355h-256c0.583-64.52 0.583-125.919 0.583-192 82.611 0 255.417-1.355 255.417-1.355zM384 272h256v192h-256v-192zM320 720h-255.854v-192c0 0 174.669 0.181 255.854 0v192zM384 528h256v192h-256v-192zM960 528v192h-256v-192h256z" />
<glyph unicode="&#xe965;" glyph-name="text-background-color" d="M0 863.895c0 35.404 28.726 64.105 64.056 64.105h895.888c35.377 0 64.056-28.731 64.056-64.105v-831.79c0-35.404-28.726-64.105-64.056-64.105h-895.888c-35.377 0-64.056 28.731-64.056 64.105v831.79zM302.291 592c-48.137 0-87.248-8.073-115.829-25.688-33.094-19.083-54.154-49.908-62.427-91.009l78.974-6.606c4.513 21.284 15.795 36.697 33.846 46.972 15.043 8.807 35.35 13.211 60.171 13.211 58.667 0 88-26.422 88-79.266v-15.413l-87.248-2.202c-57.162-1.468-102.291-12.477-133.88-34.495-34.598-22.752-51.897-55.78-51.897-98.349 0-31.56 12.034-57.248 36.855-77.064 22.564-19.817 54.154-30.092 94.769-30.092 34.598 0 64.684 6.606 90.256 18.349 22.564 11.009 41.368 26.422 56.41 45.505v-53.578h73.709v242.202c0 46.239-12.034 81.468-35.35 105.688-27.077 27.89-69.197 41.835-126.359 41.835zM384 384v-22.326c0-29.767-12.85-55.070-37.039-75.163s-52.913-30.512-86.929-30.512c-20.409 0-37.039 5.209-49.134 14.884-12.85 9.674-18.898 21.581-18.898 36.465 0 47.628 36.283 72.93 109.606 74.419l82.394 2.233zM544 736v-533.736h73.157v45.456c26.602-36.658 65.767-55.72 118.233-55.72 56.161 0 99.759 19.795 132.273 59.385 29.558 36.658 44.337 84.313 44.337 142.232 0 55.72-14.779 101.908-43.598 138.566-31.775 39.59-74.635 59.385-129.317 59.385-47.293 0-85.719-21.995-116.755-66.717v211.148h-78.329zM723.636 528c37.818 0 66.182-12.397 84.364-38.649 16-21.877 24-53.962 24-95.528s-8-73.651-22.545-96.987c-18.182-26.981-45.818-40.836-83.636-40.836-33.455 0-59.636 13.855-77.818 40.107-16 24.064-24 54.692-24 92.611v6.563c0 40.836 9.455 73.651 29.818 98.445 17.455 23.335 40.727 34.273 69.818 34.273z" />
<glyph unicode="&#xe967;" glyph-name="text-italic" d="M352 960h448v-160h-448v160zM224 96h448v-160h-448v160zM384 96l96.454 704h159.546l-96.454-704h-159.546z" />
<glyph unicode="&#xe968;" glyph-name="text-strikethrough" d="M626 368c21.72-8.864 39.72-17.771 54-26.723 39.507-24.767 59.26-64.394 59.26-118.881 0-51.786-19.082-92.763-57.247-122.934s-88.507-45.256-151.027-45.256c-65.973 0-122.26 17.674-168.863 53.024s-72.781 73.949-78.534 147.799h-107.589c3.069-98.168 34.041-162.547 92.918-225.14s147.767-93.889 266.671-93.889c92.822 0 168.096 28.144 225.822 84.433s86.589 126.986 86.589 212.095c0 53.972-10.175 99.129-30.526 135.472h174.526v80h-247.196c-17.745 13.288-36.853 24.32-57.324 33.098-44.11 18.913-103.657 38.051-178.644 57.414s-126.192 39.402-153.616 60.116c-27.425 20.714-41.137 51.785-41.137 93.214 0 45.481 17.068 81.956 51.205 109.425s82.274 41.203 144.411 41.203c128.494 0 198.301-43.89 209.425-163.673h108.74c-3.452 94.565-31.692 155.889-92.63 203.525s-135.013 77.678-230.137 77.678c-90.521 0-163.109-25.667-217.767-77.003s-81.986-117.080-81.986-197.235c0-71.149 21-128.112 63-170.892 25.182-25.649 60.154-47.94 104.915-66.871h-341.258v-80h594z" />
<glyph unicode="&#xe969;" glyph-name="text-underline" d="M160 960h170.667v-465.934c0-87.209-1.818-150.979 32.463-195.214s86.023-59.082 148.87-59.082c62.847 0 112.806 14.025 148.462 59.082s32.871 108.006 32.871 195.214v465.934h170.667v-463.121c0-130.813-20.148-235.956-96-304.879-75.852-67.516-128-95.944-256-95.944s-183.066 29.834-256 95.944c-77.311 70.33-96 174.066-96 304.879v463.121zM160 32h704v-96h-704v96z" />
<glyph unicode="&#xe96a;" glyph-name="text-bold" d="M96 960v-1024h470.073c109.588 0 194.662 20.078 255.224 60.235 70.655 48.762 106.704 123.339 106.704 226.599 0 68.84-17.303 124.773-51.91 166.364s-86.516 68.84-154.288 81.748c51.91 18.644 90.842 47.328 119.681 84.616 28.839 40.157 43.258 88.919 43.258 146.286 0 78.88-27.397 140.549-82.191 186.443-57.678 48.762-135.542 71.709-236.478 71.709h-470.073zM253.172 830.924h273.969c69.213 0 121.123-11.473 152.846-35.854 31.723-22.947 47.584-60.235 47.584-111.866 0-54.499-15.861-94.655-47.584-120.471-31.723-24.381-83.633-37.289-155.73-37.289h-271.085v305.479zM253.172 397.804h295.598c74.981 0 131.217-12.908 167.265-40.157s54.794-71.709 54.794-131.944c0-58.801-24.513-101.826-70.655-129.076-37.49-20.078-89.4-31.552-155.73-31.552h-291.272v332.728z" />
<glyph unicode="&#xe96b;" glyph-name="video" d="M0 831.921v-767.843c0-35.282 28.679-64.079 64.056-64.079h895.888c35.33 0 64.056 28.689 64.056 64.079v767.843c0 35.282-28.679 64.079-64.056 64.079h-895.888c-35.33 0-64.056-28.689-64.056-64.079zM398.297 311.377l256.028 111.913c23.555 10.255 23.555 39.684 0 50.017l-256.028 111.87c-21.279 9.29-46.303-4.177-46.303-25.003v-223.76c0-20.839 25.023-34.285 46.303-25.037v0 0zM192 124.281c0-15.655-13.703-28.281-32.287-28.281h-63.426c-17.818 0-32.287 11.958-32.287 28.281v55.463c0 15.599 13.692 28.255 32.287 28.255h63.426c17.781 0 32.287-12 32.287-28.255v-55.463zM192 420.292c0-15.651-13.703-28.292-32.287-28.292h-63.426c-17.818 0-32.287 11.997-32.287 28.292v55.44c0 15.618 13.692 28.268 32.287 28.268h63.426c17.781 0 32.287-11.995 32.287-28.268v-55.44zM192 716.258c0-15.634-13.703-28.258-32.287-28.258h-63.426c-17.818 0-32.287 11.935-32.287 28.258v55.462c0 15.624 13.692 28.279 32.287 28.279h63.426c17.781 0 32.287-12 32.287-28.279v-55.462zM767.972 96h-511.969v704h511.969v-704zM960 124.281c0-15.655-13.719-28.281-32.319-28.281h-63.438c-17.795 0-32.242 11.958-32.242 28.281v55.463c0 15.599 13.718 28.255 32.292 28.255h63.463c17.747 0 32.245-12 32.245-28.255v-55.463zM960 420.292c0-15.651-13.719-28.292-32.319-28.292h-63.438c-17.795 0-32.242 11.997-32.242 28.292v55.44c0 15.618 13.718 28.268 32.292 28.268h63.463c17.747 0 32.245-11.995 32.245-28.268v-55.44zM960 716.258c0-15.634-13.719-28.258-32.319-28.258h-63.438c-17.795 0-32.242 11.935-32.242 28.258v55.462c0 15.624 13.718 28.279 32.292 28.279h63.463c17.747 0 32.245-12 32.245-28.279v-55.462z" />
<glyph unicode="&#xe9a3;" glyph-name="minus" d="M48 496h928c26.51 0 48-21.49 48-48s-21.49-48-48-48h-928c-26.51 0-48 21.49-48 48s21.49 48 48 48z" />
<glyph unicode="&#xe9b9;" glyph-name="preview" d="M512 80c-282.77 0-495.223 332.352-512 359.822 16.777 25.479 229.23 376.178 512 376.178s496.851-350.631 512-376.178c-15.149-26.82-229.23-359.822-512-359.822zM512 208c132.548 0 240 107.452 240 240s-107.452 240-240 240c-132.548 0-240-107.452-240-240s107.452-240 240-240zM512 320c-70.692 0-128 57.308-128 128s57.308 128 128 128c70.692 0 128-57.308 128-128s-57.308-128-128-128z" />
<glyph unicode="&#xe9bb;" glyph-name="font" d="M816 576.235v-576.286c0-8.808-7.216-15.949-15.852-15.949h-64.295c-8.755 0-15.852 7.092-15.852 15.949v576.286h-192.115c-8.773 0-15.885 7.198-15.885 16.029v63.707c0 8.853 7.238 16.029 15.885 16.029h480.231c8.773 0 15.885-7.198 15.885-16.029v-63.707c0-8.853-7.238-16.029-15.885-16.029h-192.115zM348.762 911.687c1.004 0.205 2.040 0.313 3.097 0.313h64.381c1.072 0 2.12-0.108 3.132-0.313h332.599c8.853 0 16.030-7.192 16.030-16.016v-63.655c0-8.845-7.241-16.016-15.875-16.016h-320.013v-815.893c0-8.896-7.225-16.107-15.874-16.107h-64.381c-8.767 0-15.874 7.201-15.874 16.107v815.893h-319.954c-8.854 0-16.031 7.192-16.031 16.016v63.655c0 8.845 7.12 16.016 15.849 16.016h332.913z" />
<glyph unicode="&#xe9f7;" glyph-name="clear" d="M311.084 48.201c-1.829 1.41-3.588 2.953-5.264 4.629l-210 210c-21.087 21.087-21.087 55.277 0 76.364l524.992 524.992c21.087 21.087 55.277 21.087 76.364 0l210-210c21.087-21.087 21.087-55.277 0-76.364l-494.326-494.326h504.151c14.911 0 26.999-12.088 26.999-26.999v-13.498c0-14.911-12.088-26.999-26.999-26.999h-560.222c-1.212 0-2.405 0.080-3.575 0.235-6.555 0.254-13.036 2.883-18.041 7.887l-24.079 24.079zM401.269 549.19l-229.088-229.088c-10.544-10.544-10.544-27.638 0-38.182l152.728-152.728c10.544-10.544 27.638-10.544 38.182 0l229.088 229.088-190.909 190.909z" />
</font>
</defs>
</svg>
